<mxfile host="app.diagrams.net" modified="2023-01-10T12:29:30.007Z" agent="5.0 (Windows NT 10.0; Win64; x64) AppleWebKit/537.36 (KHTML, like Gecko) Chrome/108.0.0.0 Safari/537.36" version="20.8.3" etag="-2EmbzRpQJqUBjPkTUNa" type="github">
  <diagram id="hmlVGfcO0KWfllw4ZGa7" name="第 1 页">
    <mxGraphModel dx="1430" dy="775" grid="1" gridSize="10" guides="1" tooltips="1" connect="1" arrows="1" fold="1" page="1" pageScale="1" pageWidth="1100" pageHeight="850" math="0" shadow="0">
      <root>
        <mxCell id="0" />
        <mxCell id="1" parent="0" />
        <mxCell id="PIzyJmBc4iHDWjUkCJsT-10" value="UI" style="swimlane;whiteSpace=wrap;html=1;" vertex="1" parent="1">
          <mxGeometry x="10" y="10" width="290" height="830" as="geometry" />
        </mxCell>
        <mxCell id="PIzyJmBc4iHDWjUkCJsT-1" value="申请form修改流程" style="rounded=0;whiteSpace=wrap;html=1;" vertex="1" parent="PIzyJmBc4iHDWjUkCJsT-10">
          <mxGeometry x="80" y="40" width="120" height="60" as="geometry" />
        </mxCell>
        <mxCell id="PIzyJmBc4iHDWjUkCJsT-34" style="edgeStyle=orthogonalEdgeStyle;rounded=0;orthogonalLoop=1;jettySize=auto;html=1;exitX=0.5;exitY=1;exitDx=0;exitDy=0;entryX=0.5;entryY=0;entryDx=0;entryDy=0;" edge="1" parent="PIzyJmBc4iHDWjUkCJsT-10" target="PIzyJmBc4iHDWjUkCJsT-8">
          <mxGeometry relative="1" as="geometry">
            <mxPoint x="140" y="272" as="sourcePoint" />
            <mxPoint x="140" y="322" as="targetPoint" />
          </mxGeometry>
        </mxCell>
        <mxCell id="PIzyJmBc4iHDWjUkCJsT-18" value="显示数据" style="rounded=0;whiteSpace=wrap;html=1;" vertex="1" parent="PIzyJmBc4iHDWjUkCJsT-10">
          <mxGeometry x="80" y="239" width="120" height="60" as="geometry" />
        </mxCell>
        <mxCell id="PIzyJmBc4iHDWjUkCJsT-8" value="提交/保存/审批流程申请" style="rounded=0;whiteSpace=wrap;html=1;" vertex="1" parent="PIzyJmBc4iHDWjUkCJsT-10">
          <mxGeometry x="80" y="333" width="120" height="60" as="geometry" />
        </mxCell>
        <mxCell id="PIzyJmBc4iHDWjUkCJsT-11" value="API" style="swimlane;whiteSpace=wrap;html=1;" vertex="1" parent="1">
          <mxGeometry x="300" y="10" width="300" height="830" as="geometry">
            <mxRectangle x="780" y="130" width="140" height="30" as="alternateBounds" />
          </mxGeometry>
        </mxCell>
        <mxCell id="PIzyJmBc4iHDWjUkCJsT-28" style="edgeStyle=orthogonalEdgeStyle;rounded=0;orthogonalLoop=1;jettySize=auto;html=1;exitX=1;exitY=0.5;exitDx=0;exitDy=0;entryX=1;entryY=0.5;entryDx=0;entryDy=0;" edge="1" parent="PIzyJmBc4iHDWjUkCJsT-11" source="PIzyJmBc4iHDWjUkCJsT-20" target="PIzyJmBc4iHDWjUkCJsT-27">
          <mxGeometry relative="1" as="geometry" />
        </mxCell>
        <mxCell id="PIzyJmBc4iHDWjUkCJsT-51" value="存在" style="edgeLabel;html=1;align=center;verticalAlign=middle;resizable=0;points=[];" vertex="1" connectable="0" parent="PIzyJmBc4iHDWjUkCJsT-28">
          <mxGeometry x="0.0527" y="-1" relative="1" as="geometry">
            <mxPoint y="-5" as="offset" />
          </mxGeometry>
        </mxCell>
        <mxCell id="PIzyJmBc4iHDWjUkCJsT-20" value="未完结form&lt;br style=&quot;border-color: var(--border-color);&quot;&gt;流程" style="rhombus;whiteSpace=wrap;html=1;" vertex="1" parent="PIzyJmBc4iHDWjUkCJsT-11">
          <mxGeometry x="110" y="30" width="80" height="80" as="geometry" />
        </mxCell>
        <mxCell id="PIzyJmBc4iHDWjUkCJsT-25" value="查询form" style="rounded=0;whiteSpace=wrap;html=1;" vertex="1" parent="PIzyJmBc4iHDWjUkCJsT-11">
          <mxGeometry x="80" y="146.55" width="140" height="60" as="geometry" />
        </mxCell>
        <mxCell id="PIzyJmBc4iHDWjUkCJsT-22" style="edgeStyle=orthogonalEdgeStyle;rounded=0;orthogonalLoop=1;jettySize=auto;html=1;exitX=0.5;exitY=1;exitDx=0;exitDy=0;entryX=0.5;entryY=0;entryDx=0;entryDy=0;" edge="1" parent="PIzyJmBc4iHDWjUkCJsT-11" source="PIzyJmBc4iHDWjUkCJsT-20" target="PIzyJmBc4iHDWjUkCJsT-25">
          <mxGeometry relative="1" as="geometry" />
        </mxCell>
        <mxCell id="PIzyJmBc4iHDWjUkCJsT-23" value="不存在" style="edgeLabel;html=1;align=center;verticalAlign=middle;resizable=0;points=[];" vertex="1" connectable="0" parent="PIzyJmBc4iHDWjUkCJsT-22">
          <mxGeometry x="-0.2783" y="-1" relative="1" as="geometry">
            <mxPoint as="offset" />
          </mxGeometry>
        </mxCell>
        <mxCell id="PIzyJmBc4iHDWjUkCJsT-27" value="查询form_history" style="rounded=0;whiteSpace=wrap;html=1;" vertex="1" parent="PIzyJmBc4iHDWjUkCJsT-11">
          <mxGeometry x="80" y="239" width="140" height="60" as="geometry" />
        </mxCell>
        <mxCell id="PIzyJmBc4iHDWjUkCJsT-44" style="edgeStyle=orthogonalEdgeStyle;rounded=0;orthogonalLoop=1;jettySize=auto;html=1;exitX=0.5;exitY=1;exitDx=0;exitDy=0;entryX=0.5;entryY=0;entryDx=0;entryDy=0;" edge="1" parent="PIzyJmBc4iHDWjUkCJsT-11" source="PIzyJmBc4iHDWjUkCJsT-35" target="PIzyJmBc4iHDWjUkCJsT-43">
          <mxGeometry relative="1" as="geometry" />
        </mxCell>
        <mxCell id="PIzyJmBc4iHDWjUkCJsT-35" value="创建/更新form_history&lt;br&gt;(创建/审批流程)" style="rounded=0;whiteSpace=wrap;html=1;" vertex="1" parent="PIzyJmBc4iHDWjUkCJsT-11">
          <mxGeometry x="80" y="333" width="140" height="60" as="geometry" />
        </mxCell>
        <mxCell id="PIzyJmBc4iHDWjUkCJsT-46" value="" style="edgeStyle=orthogonalEdgeStyle;rounded=0;orthogonalLoop=1;jettySize=auto;html=1;" edge="1" parent="PIzyJmBc4iHDWjUkCJsT-11" source="PIzyJmBc4iHDWjUkCJsT-43" target="PIzyJmBc4iHDWjUkCJsT-45">
          <mxGeometry relative="1" as="geometry">
            <Array as="points">
              <mxPoint x="150" y="518" />
              <mxPoint x="150" y="518" />
            </Array>
          </mxGeometry>
        </mxCell>
        <mxCell id="PIzyJmBc4iHDWjUkCJsT-47" value="不通过" style="edgeLabel;html=1;align=center;verticalAlign=middle;resizable=0;points=[];" vertex="1" connectable="0" parent="PIzyJmBc4iHDWjUkCJsT-46">
          <mxGeometry x="-0.2667" y="1" relative="1" as="geometry">
            <mxPoint as="offset" />
          </mxGeometry>
        </mxCell>
        <mxCell id="PIzyJmBc4iHDWjUkCJsT-49" style="edgeStyle=orthogonalEdgeStyle;rounded=0;orthogonalLoop=1;jettySize=auto;html=1;exitX=0;exitY=0.5;exitDx=0;exitDy=0;entryX=0;entryY=0.5;entryDx=0;entryDy=0;" edge="1" parent="PIzyJmBc4iHDWjUkCJsT-11" source="PIzyJmBc4iHDWjUkCJsT-43" target="PIzyJmBc4iHDWjUkCJsT-48">
          <mxGeometry relative="1" as="geometry">
            <Array as="points">
              <mxPoint x="30" y="458" />
              <mxPoint x="30" y="678" />
            </Array>
          </mxGeometry>
        </mxCell>
        <mxCell id="PIzyJmBc4iHDWjUkCJsT-50" value="通过" style="edgeLabel;html=1;align=center;verticalAlign=middle;resizable=0;points=[];" vertex="1" connectable="0" parent="PIzyJmBc4iHDWjUkCJsT-49">
          <mxGeometry x="-0.0495" y="1" relative="1" as="geometry">
            <mxPoint as="offset" />
          </mxGeometry>
        </mxCell>
        <mxCell id="PIzyJmBc4iHDWjUkCJsT-43" value="通过/不通过/打回" style="rhombus;whiteSpace=wrap;html=1;rounded=0;" vertex="1" parent="PIzyJmBc4iHDWjUkCJsT-11">
          <mxGeometry x="110" y="418" width="80" height="80" as="geometry" />
        </mxCell>
        <mxCell id="PIzyJmBc4iHDWjUkCJsT-45" value="1.form_history标记为不通过&lt;br&gt;2.添加流程步骤记录表&lt;br&gt;&lt;div style=&quot;&quot;&gt;&lt;span style=&quot;background-color: initial;&quot;&gt;3.流程状态标记为完成&lt;/span&gt;&lt;/div&gt;" style="whiteSpace=wrap;html=1;rounded=0;align=left;" vertex="1" parent="PIzyJmBc4iHDWjUkCJsT-11">
          <mxGeometry x="50" y="548" width="200" height="60" as="geometry" />
        </mxCell>
        <mxCell id="PIzyJmBc4iHDWjUkCJsT-48" value="1.form_history标记通过并同步到form&lt;br&gt;2.添加流程步骤记录表&lt;br&gt;&lt;div style=&quot;&quot;&gt;&lt;span style=&quot;background-color: initial;&quot;&gt;3.流程状态标记为完成&lt;/span&gt;&lt;/div&gt;" style="whiteSpace=wrap;html=1;rounded=0;align=left;" vertex="1" parent="PIzyJmBc4iHDWjUkCJsT-11">
          <mxGeometry x="50" y="648" width="200" height="60" as="geometry" />
        </mxCell>
        <mxCell id="PIzyJmBc4iHDWjUkCJsT-53" value="1.添加流程步骤记录表" style="whiteSpace=wrap;html=1;rounded=0;align=left;" vertex="1" parent="PIzyJmBc4iHDWjUkCJsT-11">
          <mxGeometry x="50" y="738" width="200" height="60" as="geometry" />
        </mxCell>
        <mxCell id="PIzyJmBc4iHDWjUkCJsT-52" style="edgeStyle=orthogonalEdgeStyle;rounded=0;orthogonalLoop=1;jettySize=auto;html=1;exitX=1;exitY=0.5;exitDx=0;exitDy=0;entryX=1;entryY=0.5;entryDx=0;entryDy=0;" edge="1" parent="PIzyJmBc4iHDWjUkCJsT-11" source="PIzyJmBc4iHDWjUkCJsT-43" target="PIzyJmBc4iHDWjUkCJsT-53">
          <mxGeometry relative="1" as="geometry">
            <mxPoint x="240" y="788" as="targetPoint" />
            <Array as="points">
              <mxPoint x="270" y="458" />
              <mxPoint x="270" y="768" />
            </Array>
          </mxGeometry>
        </mxCell>
        <mxCell id="PIzyJmBc4iHDWjUkCJsT-54" value="打回" style="edgeLabel;html=1;align=center;verticalAlign=middle;resizable=0;points=[];" vertex="1" connectable="0" parent="PIzyJmBc4iHDWjUkCJsT-52">
          <mxGeometry x="0.2774" y="2" relative="1" as="geometry">
            <mxPoint as="offset" />
          </mxGeometry>
        </mxCell>
        <mxCell id="PIzyJmBc4iHDWjUkCJsT-15" style="edgeStyle=orthogonalEdgeStyle;rounded=0;orthogonalLoop=1;jettySize=auto;html=1;exitX=1;exitY=0.5;exitDx=0;exitDy=0;entryX=0;entryY=0.5;entryDx=0;entryDy=0;" edge="1" parent="1" source="PIzyJmBc4iHDWjUkCJsT-1" target="PIzyJmBc4iHDWjUkCJsT-20">
          <mxGeometry relative="1" as="geometry">
            <mxPoint x="380" y="80" as="targetPoint" />
          </mxGeometry>
        </mxCell>
        <mxCell id="PIzyJmBc4iHDWjUkCJsT-24" value="通过ID查" style="edgeLabel;html=1;align=center;verticalAlign=middle;resizable=0;points=[];" vertex="1" connectable="0" parent="PIzyJmBc4iHDWjUkCJsT-15">
          <mxGeometry x="-0.1886" y="1" relative="1" as="geometry">
            <mxPoint as="offset" />
          </mxGeometry>
        </mxCell>
        <mxCell id="PIzyJmBc4iHDWjUkCJsT-26" style="edgeStyle=orthogonalEdgeStyle;rounded=0;orthogonalLoop=1;jettySize=auto;html=1;exitX=0;exitY=0.5;exitDx=0;exitDy=0;entryX=0.5;entryY=0;entryDx=0;entryDy=0;" edge="1" parent="1" source="PIzyJmBc4iHDWjUkCJsT-25" target="PIzyJmBc4iHDWjUkCJsT-18">
          <mxGeometry relative="1" as="geometry" />
        </mxCell>
        <mxCell id="PIzyJmBc4iHDWjUkCJsT-33" style="edgeStyle=orthogonalEdgeStyle;rounded=0;orthogonalLoop=1;jettySize=auto;html=1;exitX=0;exitY=0.5;exitDx=0;exitDy=0;entryX=1;entryY=0.5;entryDx=0;entryDy=0;" edge="1" parent="1" source="PIzyJmBc4iHDWjUkCJsT-27" target="PIzyJmBc4iHDWjUkCJsT-18">
          <mxGeometry relative="1" as="geometry" />
        </mxCell>
        <mxCell id="PIzyJmBc4iHDWjUkCJsT-36" style="edgeStyle=orthogonalEdgeStyle;rounded=0;orthogonalLoop=1;jettySize=auto;html=1;exitX=1;exitY=0.5;exitDx=0;exitDy=0;" edge="1" parent="1" source="PIzyJmBc4iHDWjUkCJsT-8" target="PIzyJmBc4iHDWjUkCJsT-35">
          <mxGeometry relative="1" as="geometry" />
        </mxCell>
      </root>
    </mxGraphModel>
  </diagram>
</mxfile>
